<?xml version="1.0" encoding="UTF-8"?>
<svg width="700pt" height="700pt" version="1.1" viewBox="0 0 700 700" xmlns="http://www.w3.org/2000/svg">
 <path d="m350 35c-64.977 0-127.29 25.812-173.24 71.758-45.945 45.949-71.758 108.27-71.758 173.24s25.812 127.29 71.758 173.24c45.949 45.945 108.27 71.758 173.24 71.758s127.29-25.812 173.24-71.758c45.945-45.949 71.758-108.27 71.758-173.24 0-43.008-11.32-85.254-32.824-122.5-21.504-37.246-52.43-68.172-89.676-89.676-37.246-21.504-79.492-32.824-122.5-32.824zm0 35c23.207 0 45.461 9.2188 61.871 25.629s25.629 38.664 25.629 61.871-9.2188 45.461-25.629 61.871-38.664 25.629-61.871 25.629-45.461-9.2188-61.871-25.629-25.629-38.664-25.629-61.871 9.2188-45.461 25.629-61.871 38.664-25.629 61.871-25.629zm0 420c-32.758 0.36719-65.234-6.0859-95.363-18.949-30.129-12.863-57.25-31.859-79.637-55.777-7.5-8.2969-11.656-19.086-11.656-30.273s4.1562-21.977 11.656-30.273c22.387-23.918 49.508-42.914 79.637-55.777 30.129-12.863 62.605-19.316 95.363-18.949 32.758-0.36719 65.234 6.0859 95.363 18.949 30.129 12.863 57.25 31.859 79.637 55.777 7.5 8.2969 11.656 19.086 11.656 30.273s-4.1562 21.977-11.656 30.273c-22.387 23.918-49.508 42.914-79.637 55.777-30.129 12.863-62.605 19.316-95.363 18.949z"/>
</svg>
